<?xml version="1.0" standalone="no"?>
<!DOCTYPE svg PUBLIC "-//W3C//DTD SVG 20010904//EN"
 "http://www.w3.org/TR/2001/REC-SVG-20010904/DTD/svg10.dtd">
<svg version="1.0" xmlns="http://www.w3.org/2000/svg"
 width="600.000000pt" height="240.000000pt" viewBox="0 0 600.000000 240.000000"
 preserveAspectRatio="xMidYMid meet">
<g transform="translate(0.000000,240.000000) scale(0.100000,-0.100000)"
fill="#174d12" stroke="none">
<path d="M3145 2261 c-3 -10 -5 -23 -3 -27 4 -15 -13 -88 -24 -101 -6 -7 -15
-10 -20 -7 -7 4 -8 -5 -3 -26 7 -32 7 -32 -26 -25 l-34 7 39 -36 c42 -40 43
-58 2 -31 -24 16 -26 16 -26 1 0 -9 -4 -16 -9 -16 -18 0 -20 -32 -5 -56 19
-29 1 -34 -28 -7 -26 23 -22 3 7 -37 29 -39 23 -58 -11 -36 -44 30 -46 15 -4
-33 34 -38 37 -46 14 -37 -14 5 -16 1 -11 -22 6 -28 5 -29 -36 -27 -23 0 -48
4 -55 9 -8 5 -12 -1 -12 -18 0 -26 32 -56 60 -56 12 0 16 -10 16 -35 0 -34 -9
-45 -20 -26 -9 13 -54 19 -65 8 -5 -5 -23 -11 -40 -13 -29 -3 -31 -2 -31 29 0
18 6 39 13 46 10 11 8 12 -13 6 -24 -8 -24 -7 -7 18 22 33 22 43 0 26 -15 -12
-16 -12 -11 8 7 26 -14 59 -30 49 -18 -11 -14 5 6 27 16 19 16 20 0 14 -13 -5
-18 -1 -18 13 0 11 -4 20 -8 20 -12 0 -32 47 -32 75 0 37 -17 30 -24 -10 -4
-19 -6 -37 -4 -39 2 -2 -5 -13 -15 -24 -11 -12 -16 -26 -12 -31 4 -7 -3 -11
-17 -12 l-23 0 23 -16 c25 -18 30 -38 6 -29 -23 9 -45 -23 -33 -46 11 -20 -1
-24 -19 -6 -8 8 -12 8 -12 1 0 -6 7 -16 15 -23 22 -18 18 -33 -6 -27 -16 4
-19 2 -13 -11 4 -9 9 -31 11 -48 5 -31 4 -31 -32 -28 -29 2 -36 -1 -33 -14 2
-9 13 -21 26 -27 13 -6 22 -19 22 -31 0 -17 -5 -20 -24 -17 -21 4 -24 2 -19
-16 4 -17 2 -20 -11 -15 -11 4 -16 1 -16 -10 0 -9 -4 -16 -10 -16 -5 0 -10 -6
-10 -14 0 -10 15 -17 43 -21 131 -18 911 -94 918 -89 5 3 9 25 9 50 l0 44 79
0 c44 0 86 3 95 6 22 9 20 24 -3 24 -15 0 -19 7 -19 29 1 16 -11 54 -25 84
-15 30 -27 59 -27 65 0 25 -19 10 -38 -30 -11 -24 -29 -52 -41 -62 -21 -19
-21 -19 -22 0 -1 10 0 28 1 39 1 16 -1 18 -11 8 -22 -21 -32 -15 -25 17 5 27
3 30 -19 30 -13 0 -27 -4 -30 -10 -12 -20 -21 -9 -21 25 0 26 4 35 16 35 23 0
55 30 63 58 4 19 2 22 -11 16 -9 -4 -36 -8 -59 -9 -41 -2 -42 -1 -36 27 5 25
3 27 -13 21 -14 -5 -10 5 15 35 37 48 37 59 -3 41 -38 -17 -43 -5 -12 31 30
36 35 62 8 37 -19 -17 -42 -23 -42 -10 0 3 8 15 18 26 12 15 14 21 4 24 -6 3
-10 9 -6 14 3 5 0 9 -5 9 -6 0 -11 7 -11 16 0 15 -2 15 -26 -1 -41 -27 -40 -9
2 31 l39 36 -32 -7 c-36 -7 -41 2 -22 36 8 16 7 20 -3 18 -30 -4 -37 3 -43 39
-18 103 -36 137 -50 93z"/>
<path d="M4425 1838 c-3 -13 -11 -49 -22 -100 -3 -16 -12 -28 -19 -28 -10 0
-13 -7 -8 -26 6 -25 6 -26 -17 -14 -23 13 -23 13 -6 -11 9 -13 22 -32 28 -43
11 -18 10 -18 -12 -2 -13 9 -26 16 -30 16 -12 0 -29 -49 -19 -55 6 -4 10 -13
10 -22 0 -14 -3 -14 -20 2 -17 15 -20 16 -20 3 0 -9 7 -21 15 -28 16 -14 20
-40 6 -40 -5 0 -14 7 -21 15 -7 8 -17 15 -21 15 -10 0 19 -50 36 -62 6 -5 5
-11 -4 -17 -8 -5 -11 -16 -6 -30 6 -21 -8 -30 -20 -11 -4 6 -11 8 -16 4 -5 -3
-22 2 -37 12 -16 11 -42 17 -67 15 -38 -2 -40 0 -40 27 0 16 7 37 15 47 14 17
13 18 -7 13 -24 -6 -33 15 -13 27 6 3 10 11 10 17 0 6 -7 5 -17 -3 -15 -13
-16 -11 -10 10 7 28 -11 61 -30 54 -22 -9 -14 13 10 25 l22 11 -24 0 c-16 1
-21 5 -17 16 3 8 -1 18 -10 23 -8 4 -18 28 -22 52 -8 45 -32 68 -32 31 0 -33
-33 -101 -49 -101 -11 0 -11 -4 3 -19 16 -17 16 -19 -4 -24 -14 -4 -20 -13
-20 -32 0 -25 -2 -26 -17 -14 -17 13 -17 13 0 -13 22 -35 22 -41 -4 -33 -18 6
-19 5 -10 -13 6 -12 11 -32 11 -46 0 -23 -2 -24 -32 -15 -41 11 -38 12 -38 -5
0 -7 11 -21 25 -30 31 -20 36 -63 6 -46 -27 14 -34 13 -27 -5 3 -9 0 -15 -9
-15 -8 0 -15 -7 -15 -15 0 -8 -4 -15 -10 -15 -19 0 -10 -22 25 -57 19 -19 35
-37 35 -39 0 -14 -33 1 -70 34 -31 26 -42 31 -36 17 5 -11 11 -29 14 -40 12
-44 18 -44 427 -45 l390 0 195 -200 c107 -110 250 -257 317 -328 l123 -127 37
20 c38 21 55 45 29 41 -9 -1 -19 -5 -22 -9 -14 -14 -22 -7 -20 18 0 14 6 25
11 25 20 0 54 31 49 44 -4 10 -19 13 -50 11 -38 -2 -44 0 -39 13 3 8 1 19 -5
22 -8 5 -3 17 14 35 29 31 28 42 -2 26 -28 -15 -34 -2 -12 27 23 28 19 42 -5
22 -22 -18 -31 -4 -12 18 16 18 16 20 -1 39 -13 16 -22 19 -35 12 -28 -16 -20
7 11 32 l27 22 -29 -7 c-27 -7 -28 -5 -22 19 5 18 2 25 -8 25 -8 0 -18 22 -27
60 -7 33 -16 60 -20 60 -10 0 -19 -27 -19 -56 0 -33 -17 -64 -35 -64 -8 0 -15
-7 -15 -15 0 -9 -9 -15 -25 -15 -20 0 -25 5 -25 26 0 14 5 34 11 46 9 18 8 19
-10 13 -25 -8 -27 2 -4 27 15 17 15 18 -6 18 -13 0 -19 4 -16 11 12 18 -4 61
-20 55 -20 -7 -19 4 3 20 16 13 16 13 0 14 -10 0 -18 8 -18 18 0 9 -7 26 -15
36 -8 11 -15 31 -15 45 0 29 -15 58 -23 44 -3 -4 -8 -25 -12 -46 -4 -20 -12
-37 -17 -37 -6 0 -7 -7 -4 -16 4 -12 2 -15 -9 -10 -17 6 -21 -9 -5 -19 16 -10
12 -23 -7 -21 -13 1 -18 -6 -17 -22 0 -15 -4 -21 -13 -18 -11 4 -11 1 -2 -15
12 -24 4 -38 -13 -21 -8 8 -15 8 -24 1 -19 -16 -35 -1 -28 26 5 20 3 23 -14
18 -21 -5 -39 12 -22 22 5 3 10 10 10 14 0 12 -39 21 -46 10 -11 -19 -25 -8
-22 19 2 20 11 30 33 37 20 7 31 18 33 34 3 21 0 23 -22 19 -15 -3 -29 -1 -32
4 -3 5 -14 6 -24 3 -16 -5 -18 0 -16 34 1 23 10 49 21 62 l20 21 -32 -7 c-39
-8 -45 10 -13 38 20 17 27 37 12 37 -4 0 -13 -5 -20 -12 -16 -16 -28 -2 -13
16 19 23 -16 68 -46 61 -34 -8 -28 12 10 32 l32 17 -32 6 c-26 4 -31 8 -23 20
14 22 12 27 -9 33 -14 3 -23 23 -35 81 -17 75 -23 88 -31 64z m605 -908 c13
-24 10 -24 -24 -7 -14 8 -23 17 -19 20 12 13 32 7 43 -13z m-40 -80 c0 -5 -4
-10 -10 -10 -5 0 -10 5 -10 10 0 6 5 10 10 10 6 0 10 -4 10 -10z"/>
<path d="M1870 1731 c-7 -34 -19 -66 -27 -72 -7 -7 -11 -20 -8 -30 5 -15 1
-19 -17 -19 -22 0 -22 -1 7 -26 l30 -25 -26 5 c-21 5 -28 1 -38 -20 -9 -20 -9
-30 0 -40 16 -19 3 -30 -16 -14 -12 10 -15 10 -15 -3 0 -8 7 -20 15 -27 24
-20 18 -31 -12 -24 -26 7 -27 6 -13 -12 8 -10 19 -22 25 -26 6 -5 6 -11 -2
-19 -6 -6 -9 -17 -7 -24 4 -9 -8 -15 -35 -20 -47 -8 -54 -29 -16 -47 22 -10
26 -17 25 -45 -1 -5 -12 -7 -26 -5 -22 3 -24 1 -19 -21 6 -21 3 -24 -27 -24
-18 0 -45 -4 -61 -8 -23 -6 -26 -5 -21 9 3 9 1 16 -5 16 -8 0 -7 8 3 22 19 26
21 47 4 30 -23 -23 -29 -12 -12 21 17 31 16 31 -1 17 -17 -14 -18 -13 -12 3
11 28 -2 48 -27 41 -21 -7 -21 -6 -2 15 14 16 16 21 5 21 -16 1 -49 61 -49 90
0 11 -4 20 -9 20 -10 0 -21 -34 -21 -68 0 -12 -7 -25 -15 -28 -10 -4 -13 -13
-10 -25 5 -14 1 -19 -12 -19 -17 -1 -17 -1 0 -14 21 -16 22 -26 2 -26 -19 0
-34 -28 -27 -52 3 -14 0 -17 -13 -12 -17 7 -17 6 0 -19 17 -27 17 -27 -6 -27
-18 0 -20 -3 -11 -12 7 -7 12 -24 12 -39 0 -30 -25 -42 -71 -32 -24 4 -29 11
-29 34 0 33 -16 39 -25 10 -9 -28 -42 -33 -49 -8 -3 12 -1 26 4 31 15 15 12
26 -6 19 -14 -5 -15 -3 -4 17 7 12 7 20 2 16 -6 -4 -12 5 -14 21 -2 17 -8 27
-17 25 -8 -2 -11 3 -8 11 2 7 -7 39 -22 70 l-27 57 -18 -60 c-10 -33 -23 -60
-28 -60 -6 0 -5 -6 2 -15 10 -12 10 -15 -3 -15 -18 0 -29 -24 -20 -47 5 -11 3
-14 -6 -8 -10 5 -11 2 -6 -14 5 -16 2 -21 -11 -21 -15 0 -16 -2 -2 -17 19 -23
12 -53 -13 -53 -12 0 -17 4 -13 11 4 8 -3 9 -26 4 -28 -6 -32 -5 -27 9 4 9 10
24 14 33 5 12 2 15 -9 11 -25 -10 -37 5 -47 58 -5 27 -14 60 -19 74 -11 29
-13 26 -34 -70 -11 -49 -19 -65 -32 -64 -17 2 -22 -21 -6 -31 22 -14 9 -26
-20 -20 -38 8 -38 -5 0 -27 17 -9 30 -24 30 -33 0 -15 -2 -15 -22 -1 -30 22
-34 21 -48 -14 -10 -24 -10 -33 0 -45 19 -23 3 -31 -20 -10 -16 15 -20 15 -20
3 0 -8 9 -25 20 -38 35 -40 20 -54 -25 -24 -34 22 -31 4 5 -34 34 -36 36 -42
15 -42 -12 0 -13 -4 -5 -19 15 -30 14 -31 -45 -26 -49 3 -55 2 -55 -15 0 -22
36 -50 64 -50 15 0 17 -3 8 -12 -7 -7 -8 -17 -1 -30 7 -14 6 -18 -5 -18 -8 0
-18 5 -21 10 -3 6 -16 10 -28 10 -20 -1 -19 -3 11 -30 61 -56 66 -53 296 180
l207 210 427 0 427 0 87 87 c49 48 88 91 88 95 0 5 -13 8 -30 8 -16 0 -30 5
-30 11 0 7 -9 9 -21 6 -18 -5 -20 -2 -15 18 5 19 3 22 -14 18 -11 -3 -20 -9
-20 -14 0 -5 -5 -9 -10 -9 -18 0 2 54 27 73 31 24 31 51 1 42 -13 -4 -30 -9
-39 -11 -23 -6 -32 44 -13 70 19 27 18 37 -2 29 -14 -5 -16 -2 -10 22 6 25 5
27 -8 16 -18 -15 -21 -4 -7 18 14 23 -6 53 -30 46 -14 -5 -17 -2 -13 9 3 8 12
17 20 20 8 3 14 10 14 16 0 7 -6 7 -21 0 -18 -10 -20 -9 -17 6 2 10 -7 28 -19
41 -13 12 -23 35 -23 50 0 58 -17 55 -30 -6z m-900 -644 c0 -7 -9 -18 -21 -25
-17 -11 -20 -11 -13 0 20 36 34 46 34 25z m37 -24 c-4 -3 -10 -3 -14 0 -3 4 0
7 7 7 7 0 10 -3 7 -7z"/>
<path d="M2305 1728 c-13 -44 -30 -78 -39 -78 -6 0 -5 -5 2 -12 16 -16 15 -29
0 -25 -8 1 -14 -10 -16 -26 -2 -16 -8 -25 -14 -21 -6 4 -6 -2 1 -15 10 -17 9
-21 -5 -21 -12 0 -14 -3 -6 -13 18 -22 3 -57 -24 -57 -29 0 -30 -10 -4 -33 11
-9 20 -21 20 -26 0 -5 -9 -7 -20 -4 -14 4 -20 0 -20 -10 0 -8 -4 -17 -9 -19
-23 -9 -20 -45 5 -69 l26 -24 74 78 c65 67 79 77 109 77 22 0 35 5 35 13 0 7
9 18 20 25 30 19 24 32 -11 25 -31 -6 -32 -5 -27 25 2 18 2 32 -2 32 -4 0 -7
14 -8 32 0 18 -8 38 -17 45 -10 6 -14 16 -10 22 3 6 1 11 -4 11 -6 0 -10 3 -9
8 1 9 -31 82 -36 82 -3 0 -8 -10 -11 -22z"/>
<path d="M1897 843 c-262 -279 -477 -512 -477 -518 0 -5 19 -10 42 -11 52 -1
15 -37 523 503 213 227 391 411 395 408 5 -3 176 -236 381 -518 205 -281 381
-522 393 -535 15 -17 29 -22 53 -20 19 2 34 6 36 9 1 3 -64 95 -144 205 -80
109 -271 370 -424 579 -152 209 -283 386 -289 393 -10 10 -110 -91 -489 -495z"/>
<path d="M2460 1347 c0 -3 62 -86 138 -184 75 -99 189 -249 252 -332 301 -398
483 -638 503 -658 16 -19 31 -23 77 -23 l57 0 244 247 c134 136 351 356 481
488 l237 240 -387 5 -387 5 -3 108 -3 107 -69 0 -70 0 0 -270 c0 -148 -3 -270
-8 -270 -4 0 -38 31 -75 68 l-68 69 3 151 3 152 -30 5 c-30 5 -519 57 -710 75
-55 6 -119 13 -142 16 -24 3 -43 3 -43 1z"/>
<path d="M4090 651 c-261 -266 -474 -486 -473 -489 2 -4 19 -8 39 -10 37 -3
43 2 468 427 237 237 435 431 440 431 4 0 169 -163 367 -362 l358 -363 0 55 0
55 -362 369 -362 369 -475 -482z"/>
<path d="M1280 994 c0 -5 167 -188 276 -304 l24 -24 160 159 c88 88 160 163
160 167 0 4 -139 8 -310 8 -170 0 -310 -3 -310 -6z"/>
<path d="M817 629 l-367 -361 0 -49 c0 -27 3 -49 8 -49 4 1 169 161 367 356
l360 354 150 -155 c83 -85 155 -155 161 -155 6 0 20 10 32 22 l21 23 -174 185
c-96 102 -178 186 -182 187 -5 2 -174 -159 -376 -358z"/>
<path d="M2180 691 c0 -79 0 -80 28 -83 15 -2 51 -1 80 0 l52 4 0 79 0 79 -80
0 -80 0 0 -79z"/>
<path d="M2420 690 l0 -80 85 0 85 0 0 80 0 80 -85 0 -85 0 0 -80z"/>
<path d="M4480 610 l0 -50 50 0 50 0 0 50 0 50 -50 0 -50 0 0 -50z"/>
<path d="M4630 610 l0 -50 50 0 50 0 0 50 0 50 -50 0 -50 0 0 -50z"/>
<path d="M1082 523 c3 -36 5 -38 41 -41 l37 -3 0 40 0 41 -41 0 -40 0 3 -37z"/>
<path d="M1204 523 c1 -37 2 -38 41 -38 39 0 40 1 43 38 l3 37 -44 0 -44 0 1
-37z"/>
<path d="M2182 468 c3 -76 5 -83 23 -82 11 1 46 2 78 2 l57 2 0 80 0 80 -80 0
-81 0 3 -82z"/>
<path d="M2420 470 l0 -80 85 0 85 0 0 80 0 80 -85 0 -85 0 0 -80z"/>
<path d="M4480 481 l0 -51 51 0 50 0 -3 48 -3 47 -47 3 -48 3 0 -50z"/>
<path d="M4630 481 l0 -51 51 0 50 0 -3 48 -3 47 -47 3 -48 3 0 -50z"/>
<path d="M1080 410 l0 -40 40 0 40 0 0 40 0 40 -40 0 -40 0 0 -40z"/>
<path d="M1204 435 c-4 -8 -3 -27 0 -41 6 -22 11 -25 44 -22 35 3 37 5 40 41
l3 37 -41 0 c-27 0 -43 -5 -46 -15z"/>
</g>
</svg>
